<svg xmlns="http://www.w3.org/2000/svg" width="159.4" height="32" viewBox="0 0 159.4 32">
  <g id="Grupo_11" data-name="Grupo 11" transform="translate(-319.965 -342.857)">
    <text id="ReservaGO" transform="translate(351.365 366.857)" fill="#b41f24" font-size="23" font-family="Poppins-Regular, Poppins"><tspan x="0" y="0">ReservaGO</tspan></text>
    <path id="utensils-solid" d="M9.58.7a56.342,56.342,0,0,1,.742,5.935,4.859,4.859,0,0,1-3.175,4.82l.594,10.972a1.109,1.109,0,0,1-1.106,1.166H3.686a1.109,1.109,0,0,1-1.106-1.166l.594-10.972A4.857,4.857,0,0,1,0,6.636,56.175,56.175,0,0,1,.742.7C.889-.235,2.829-.249,2.949.751V7.258c.06.157.7.147.737,0,.065-1.166.364-6.414.369-6.534.152-.958,2.06-.958,2.207,0,.009.124.3,5.368.369,6.534.041.147.682.157.737,0V.751c.12-1,2.064-.986,2.212-.051Zm5.493,13.165-.691,8.53a1.106,1.106,0,0,0,1.1,1.2h2.581a1.1,1.1,0,0,0,1.106-1.106V1.106A1.106,1.106,0,0,0,18.064,0c-3.8,0-10.2,8.225-2.991,13.866Z" transform="matrix(0.574, -0.819, 0.819, 0.574, 319.965, 359.942)" fill="#b41f24"/>
  </g>
</svg>
