<svg xmlns="http://www.w3.org/2000/svg" width="69.302" height="31.516" viewBox="0 0 69.302 31.516">
  <g id="Grupo_18" data-name="Grupo 18" transform="translate(-172.642 -135.841)">
    <path id="utensils-solid" d="M9.931.725A58.406,58.406,0,0,1,10.7,6.877a5.037,5.037,0,0,1-3.291,5l.616,11.374a1.149,1.149,0,0,1-1.146,1.209H3.822a1.15,1.15,0,0,1-1.146-1.209l.616-11.374A5.035,5.035,0,0,1,0,6.877,58.233,58.233,0,0,1,.769.725c.153-.97,2.164-.984,2.288.053V7.522c.062.162.721.153.764,0C3.888,6.314,4.2.873,4.2.749c.158-.994,2.135-.994,2.288,0,.01.129.315,5.565.382,6.774.043.153.707.162.764,0V.777C7.763-.255,9.778-.245,9.931.725Zm5.694,13.648-.717,8.842a1.146,1.146,0,0,0,1.142,1.242h2.675a1.144,1.144,0,0,0,1.146-1.146V1.145A1.147,1.147,0,0,0,18.726,0c-3.941,0-10.576,8.527-3.1,14.374Z" transform="translate(211 148.621) rotate(-40)" fill="#1e4351"/>
    <path id="utensils-solid-2" data-name="utensils-solid" d="M9.928.725A58.387,58.387,0,0,1,10.7,6.875a5.035,5.035,0,0,1-3.29,5l.616,11.37a1.149,1.149,0,0,1-1.146,1.208H3.82A1.149,1.149,0,0,1,2.674,23.24L3.29,11.87a5.033,5.033,0,0,1-3.29-5A58.214,58.214,0,0,1,.769.725C.922-.245,2.932-.259,3.056.777V7.52c.062.162.721.153.764,0C3.887,6.312,4.2.873,4.2.748c.158-.993,2.135-.993,2.287,0,.01.129.315,5.563.382,6.772.043.153.707.162.764,0V.777C7.76-.254,9.775-.245,9.928.725ZM15.62,14.368,14.9,23.207a1.146,1.146,0,0,0,1.141,1.242H18.72A1.143,1.143,0,0,0,19.866,23.3V1.145A1.146,1.146,0,0,0,18.72,0c-3.94,0-10.573,8.524-3.1,14.369Z" transform="translate(172.643 148.343) rotate(-39)" fill="#b41f24"/>
    <line id="Linha_2" data-name="Linha 2" y2="28" transform="translate(207.5 137.5)" fill="none" stroke="#707070" stroke-width="1"/>
  </g>
</svg>
